<svg width="38" height="30" xmlns="http://www.w3.org/2000/svg">
  <path d="m17.86,0.255l-14.23,10.42l0,8.65l14.23,10.42c-0.03,-22.23 0,-11.32 0,-29.49z"/>
  <path d="m0,22.18l7.47,0l0,-14.35999l-7.47,0l0,14.35999z"/>
  <path d="m27,29.39331c-0.3441,0.0008 -0.6807,-0.1004 -0.9672,-0.2909c-0.2866,-0.1904 -0.5103,-0.4616 -0.6428,-0.7791c-0.0907,-0.2127 -0.1386,-0.4413 -0.141,-0.6725c-0.0023,-0.2313 0.0409,-0.4607 0.1273,-0.6753c0.0864,-0.2145 0.2142,-0.4099 0.3761,-0.575c0.1619,-0.1651 0.3548,-0.2967 0.5676,-0.3872c1.4144,-0.5996 2.6984,-1.4692 3.78,-2.56c2.2328,-2.2458 3.4873,-5.2832 3.49,-8.45c-0.0107,-3.1711 -1.2762,-6.2091 -3.52,-8.45002c-1.0837,-1.09094 -2.3669,-1.96344 -3.78,-2.57c-0.4273,-0.18288 -0.7649,-0.52737 -0.9391,-0.95828c-0.1743,-0.4309 -0.171,-0.91323 0.0091,-1.34172c0.0863,-0.21384 0.2146,-0.40815 0.3775,-0.57138c0.1628,-0.16324 0.3568,-0.29207 0.5705,-0.37883c0.2136,-0.08676 0.4425,-0.12968 0.6731,-0.1262c0.2305,0.00347 0.458,0.05326 0.6689,0.14641c3.6919,1.57535 6.6282,4.52234 8.19,8.22c0.8052,1.89782 1.2201,3.93842 1.22,6.00002c-0.001,2.0605 -0.4123,4.1001 -1.21,6c-0.773,1.8366 -1.8974,3.5045 -3.31,4.91c-1.3925,1.4339 -3.0542,2.5791 -4.89,3.37c-0.2047,0.0908 -0.426,0.1385 -0.65,0.14z"/>
  <path d="m23.69,22.29103c-0.3806,-0.0005 -0.7494,-0.1325 -1.0438,-0.3737c-0.2944,-0.2412 -0.4963,-0.5767 -0.5716,-0.9498c-0.0754,-0.3731 -0.0195,-0.7607 0.1583,-1.0972c0.1777,-0.3365 0.4664,-0.6013 0.817,-0.7493c0.8156,-0.3466 1.5106,-0.9263 1.9981,-1.6663c0.4874,-0.7401 0.7456,-1.6076 0.742,-2.4937c0.0035,-0.6011 -0.1156,-1.1966 -0.35,-1.75c-0.2369,-0.5374 -0.5766,-1.0232 -1,-1.43c-0.4088,-0.4212 -0.8942,-0.7606 -1.43,-1c-0.3536,-0.1974 -0.6217,-0.5186 -0.7526,-0.90185c-0.131,-0.38321 -0.1156,-0.80132 0.0434,-1.1738c0.1589,-0.37248 0.45,-0.67299 0.8172,-0.84365c0.3673,-0.17067 0.7848,-0.19942 1.172,-0.08072c1.1725,0.50181 2.205,1.28212 3.0077,2.27324c0.8028,0.99108 1.3516,2.16308 1.5989,3.41438c0.2473,1.2512 0.1856,2.5439 -0.1798,3.7658c-0.3653,1.222 -1.0234,2.3364 -1.9169,3.2466c-0.7058,0.7133 -1.5451,1.2807 -2.47,1.67c-0.2018,0.0892 -0.4193,0.1368 -0.6399,0.14z"/>
</svg>